<svg xmlns="http://www.w3.org/2000/svg" width="32" height="28" viewBox="0 0 32 28"><path fill-rule="evenodd" clip-rule="evenodd" d="M29.192 2.79C24.455-1.948 19.762.122 16 3.5 12.24.124 7.583-1.984 2.81 2.79c-3.723 3.72-3.743 9.697 0 13.398 13.15 11.83 13.147 11.807 13.147 11.807s.02.04 13.235-11.807c3.742-3.7 3.722-9.68 0-13.4zm-1.407 11.796c-7.056 6.238-10.315 9.57-11.818 10.886-1.508-1.334-4.77-4.694-11.82-10.95-1.35-1.32-2.132-3.155-2.137-5.106-.006-1.975.78-3.84 2.212-5.25C5.705 2.7 7.162 1.99 8.68 1.99c1.762 0 3.775.992 5.982 2.95L16 6.124l1.336-1.185c2.195-1.947 4.212-2.934 5.992-2.934 1.522 0 2.977.706 4.45 2.16 1.43 1.41 2.217 3.275 2.212 5.25-.006 1.95-.788 3.787-2.205 5.17z"/></svg>
